<?xml version="1.0" encoding="iso-8859-1"?>
<!-- Uploaded to: SVG Repo, www.svgrepo.com, Generator: SVG Repo Mixer Tools -->
<svg height="800px" width="800px" version="1.1" id="Layer_1" xmlns="http://www.w3.org/2000/svg" xmlns:xlink="http://www.w3.org/1999/xlink" 
	 viewBox="0 0 512 512" xml:space="preserve">
<path style="fill:#BFA779;" d="M89.619,473.6c-13.679,0-26.539-5.325-36.207-15.002c-9.668-9.668-14.993-22.528-14.993-36.198
	s5.325-26.53,14.993-36.198l14.874-14.891l9.079,13.047l0.29,0.478l49.51,49.51c0.333,0.196,0.631,0.393,0.93,0.597l12.655,8.721
	l-14.933,14.933C116.149,468.275,103.298,473.6,89.619,473.6z"/>
<path style="fill:#FEDEA1;" d="M127.465,434.842l-0.282-0.486l-49.502-49.502c-0.333-0.196-0.631-0.393-0.93-0.597l-12.663-8.721
	l234.607-234.615l9.071,13.039l0.282,0.478l49.51,49.51c0.333,0.196,0.631,0.401,0.93,0.597l12.655,8.721L136.535,447.881
	L127.465,434.842z"/>
<path style="fill:#FEEBC7;" d="M357.865,204.442l-0.282-0.486l-49.502-49.502c-0.333-0.196-0.631-0.393-0.93-0.597l-12.655-8.721
	L411.829,27.802c9.668-9.677,22.528-15.002,36.207-15.002c13.679,0,26.53,5.325,36.207,15.002
	C493.911,37.47,499.236,50.33,499.236,64s-5.333,26.53-15.002,36.198L366.935,217.481L357.865,204.442z"/>
<path style="fill:#573A32;" d="M3.765,508.254c2.5,2.5,5.777,3.746,9.054,3.746s6.554-1.246,9.054-3.746l32.461-32.461
	C64.71,482.679,76.87,486.4,89.619,486.4c17.092,0,33.169-6.656,45.252-18.748l358.4-358.4c24.951-24.96,24.951-65.553,0-90.513
	C481.188,6.656,465.112,0,448.019,0s-33.169,6.656-45.252,18.748l-17.886,17.886c-13.474-6.767-43.221-12.416-86.716,31.113
	l-102.4,102.4c-5.001,5.001-5.001,13.099,0,18.099c2.5,2.5,5.777,3.746,9.054,3.746s6.554-1.246,9.054-3.746l102.4-102.4
	c21.367-21.385,37.419-27.776,47.65-28.254L44.358,377.148c-21.854,21.854-24.559,55.714-8.132,80.546L3.765,490.155
	C-1.235,495.147-1.235,503.253,3.765,508.254z M420.866,36.847c7.492-7.501,17.323-11.247,27.153-11.247
	c9.83,0,19.652,3.746,27.153,11.247c14.993,14.993,14.993,39.313,0,54.306L368.71,197.615c-0.427-0.623-0.691-1.323-1.237-1.869
	l-51.2-51.2c-0.555-0.546-1.246-0.811-1.869-1.237L420.866,36.847z M296.928,160.785c0.427,0.623,0.691,1.323,1.237,1.869l51.2,51.2
	c0.555,0.546,1.246,0.811,1.869,1.237L138.31,428.015c-0.427-0.623-0.691-1.323-1.237-1.869l-51.2-51.2
	c-0.555-0.546-1.246-0.811-1.869-1.237L296.928,160.785z M62.466,395.247l4.062-4.062c0.427,0.623,0.691,1.323,1.237,1.869
	l51.2,51.2c0.555,0.546,1.246,0.811,1.869,1.237l-4.062,4.062c-7.501,7.501-17.331,11.247-27.153,11.247
	c-9.83,0-19.652-3.746-27.153-11.247C47.465,434.56,47.465,410.24,62.466,395.247z"/>
</svg>